<?xml version="1.0" standalone="no"?>
<!DOCTYPE svg PUBLIC "-//W3C//DTD SVG 20010904//EN"
 "http://www.w3.org/TR/2001/REC-SVG-20010904/DTD/svg10.dtd">
<svg version="1.0" xmlns="http://www.w3.org/2000/svg"
 width="300.000000pt" height="300.000000pt" viewBox="0 0 300.000000 300.000000"
 preserveAspectRatio="xMidYMid meet">
<metadata>
Created by potrace 1.10, written by Peter Selinger 2001-2011
</metadata>
<g transform="translate(0.000000,300.000000) scale(0.100000,-0.100000)"
fill="#000000" stroke="none">
<path d="M1305 2989 c-255 -44 -451 -119 -632 -240 -423 -283 -673 -747 -673
-1249 0 -507 256 -977 684 -1255 448 -292 1007 -325 1479 -89 515 258 837 775
837 1344 0 506 -257 979 -680 1253 -260 168 -529 248 -830 246 -74 -1 -157 -5
-185 -10z m-163 -379 c87 -34 160 -105 193 -187 15 -38 64 -156 110 -263 81
-191 153 -362 282 -670 36 -85 107 -254 158 -375 51 -121 110 -260 130 -310
21 -49 48 -114 61 -143 37 -80 33 -99 -23 -124 -66 -29 -165 -29 -227 1 -69
34 -99 68 -135 156 -18 44 -41 98 -51 120 -32 71 -121 276 -182 420 -33 77
-66 154 -73 170 -8 17 -30 66 -48 110 -19 44 -101 233 -182 420 -307 708 -294
672 -257 695 28 18 179 5 244 -20z"/>
</g>
</svg>
