<?xml version="1.0" standalone="no"?>
<!DOCTYPE svg PUBLIC "-//W3C//DTD SVG 20010904//EN"
 "http://www.w3.org/TR/2001/REC-SVG-20010904/DTD/svg10.dtd">
<svg version="1.0" xmlns="http://www.w3.org/2000/svg"
 width="300.000000pt" height="300.000000pt" viewBox="0 0 300.000000 300.000000"
 preserveAspectRatio="xMidYMid meet">
<metadata>
Created by potrace 1.10, written by Peter Selinger 2001-2011
</metadata>
<g transform="translate(0.000000,300.000000) scale(0.100000,-0.100000)"
fill="#000000" stroke="none">
<path d="M1271 2937 c-8 -11 -5 -19 14 -35 14 -12 25 -17 25 -12 0 6 9 10 20
10 15 0 20 7 20 25 0 22 -4 25 -34 25 -18 0 -39 -6 -45 -13z"/>
<path d="M1443 2903 c-25 -10 -11 -34 34 -60 20 -12 43 -1 43 20 0 23 -52 50
-77 40z"/>
<path d="M1167 2820 c-28 -29 -28 -60 0 -60 18 0 53 37 53 55 0 30 -25 32 -53
5z"/>
<path d="M1342 2817 c-7 -7 -18 -18 -25 -25 -6 -7 -26 -27 -44 -45 -18 -18
-37 -37 -44 -43 -6 -7 -22 -24 -36 -38 -13 -14 -28 -26 -33 -26 -6 0 -10 -8
-10 -18 0 -9 -31 -48 -70 -85 -82 -79 -88 -97 -29 -97 44 0 69 17 69 49 0 11
4 22 9 25 5 3 12 17 15 32 8 30 118 144 140 144 8 0 16 5 18 12 2 6 30 13 61
16 31 2 57 8 57 13 0 5 16 9 35 9 19 0 35 -4 35 -9 0 -4 25 -11 56 -14 39 -4
61 -12 73 -26 10 -12 21 -21 25 -21 4 0 24 -16 44 -35 42 -39 62 -44 62 -15 0
11 -7 20 -15 20 -8 0 -25 11 -37 23 -13 13 -43 32 -66 42 -23 10 -42 22 -42
27 0 4 -7 8 -15 8 -8 0 -15 5 -15 10 0 6 -9 10 -20 10 -11 0 -20 3 -20 8 0 11
-49 30 -97 38 -24 4 -43 10 -43 15 0 13 -23 10 -38 -4z"/>
<path d="M1603 2815 c-19 -21 -16 -29 14 -42 58 -27 84 -4 43 37 -23 23 -40
25 -57 5z"/>
<path d="M2100 2715 c0 -23 4 -25 45 -25 41 0 45 2 45 25 0 23 -4 25 -45 25
-41 0 -45 -2 -45 -25z"/>
<path d="M2272 2725 c-7 -8 -8 -15 -3 -15 5 0 11 -10 13 -21 5 -34 32 -46 54
-25 9 10 13 21 8 24 -5 4 -14 16 -20 27 -14 25 -35 29 -52 10z"/>
<path d="M1750 2695 c0 -18 5 -25 20 -25 11 0 20 -4 20 -10 0 -5 7 -10 15 -10
21 0 20 56 -1 64 -35 13 -54 7 -54 -19z"/>
<path d="M1930 2696 c0 -24 4 -26 41 -26 36 0 40 2 37 23 -2 18 -10 23 -40 25
-35 3 -38 1 -38 -22z"/>
<path d="M1033 2686 l-21 -24 24 -21 c15 -13 24 -16 24 -8 0 7 9 19 20 27 11
8 20 22 20 32 0 26 -40 22 -67 -6z"/>
<path d="M1400 2700 c0 -5 -11 -10 -24 -10 -14 0 -28 -4 -31 -10 -3 -5 -14
-10 -24 -10 -21 0 -151 -124 -151 -145 0 -7 -4 -15 -9 -17 -4 -1 -11 -20 -15
-40 -6 -34 -5 -38 13 -38 11 0 23 -4 26 -10 10 -16 55 -12 55 5 0 8 5 15 10
15 6 0 10 9 10 20 0 11 5 20 10 20 6 0 10 6 10 13 1 22 36 55 68 62 18 3 32
11 32 16 0 12 137 12 144 0 3 -5 18 -12 32 -15 47 -12 96 -71 102 -121 2 -25
9 -45 13 -45 5 0 9 -16 9 -35 0 -19 -4 -35 -10 -35 -5 0 -10 -11 -10 -25 0
-24 -53 -87 -82 -98 -9 -3 -2 -14 21 -33 19 -16 39 -34 45 -40 7 -8 21 -1 48
24 21 19 38 41 38 49 0 7 5 13 10 13 6 0 10 9 10 20 0 11 5 20 10 20 6 0 10
15 10 34 0 19 5 38 10 41 6 3 10 19 10 36 0 16 -4 29 -10 29 -5 0 -10 14 -10
30 0 24 -14 44 -70 99 -38 38 -70 72 -70 75 0 3 7 6 15 6 26 0 17 37 -10 44
-14 4 -25 11 -25 16 0 6 -9 10 -20 10 -11 0 -20 5 -20 10 0 6 -16 10 -35 10
-19 0 -35 5 -35 10 0 6 -22 10 -50 10 -27 0 -50 -4 -50 -10z"/>
<path d="M2120 2610 c0 -6 -33 -10 -80 -10 -47 0 -80 -4 -80 -10 0 -6 -33 -10
-80 -10 -47 0 -80 -4 -80 -10 0 -5 -12 -10 -27 -10 l-26 0 21 -19 c12 -10 22
-25 22 -33 0 -8 11 -24 25 -34 14 -10 25 -24 25 -31 0 -7 7 -13 15 -13 10 0
15 10 15 30 0 30 1 30 55 30 l55 0 0 -50 0 -50 -55 0 c-55 0 -73 -13 -35 -25
11 -3 20 -15 20 -26 0 -10 5 -19 10 -19 6 0 10 -10 10 -22 0 -13 7 -36 15 -52
8 -15 15 -39 15 -52 0 -12 5 -26 10 -29 6 -3 10 -21 10 -40 0 -18 6 -35 13
-38 17 -5 17 -409 -1 -415 -7 -2 -12 -19 -12 -38 0 -19 -4 -34 -10 -34 -5 0
-10 -8 -10 -19 0 -10 -7 -32 -15 -47 -8 -16 -15 -37 -15 -48 0 -10 -8 -26 -18
-35 -9 -9 -24 -29 -32 -46 -8 -16 -24 -39 -35 -51 -11 -11 -33 -35 -49 -52
l-30 -32 26 0 c15 0 33 7 42 15 8 8 19 15 25 15 6 0 11 5 11 10 0 6 7 10 16
10 9 0 27 11 40 25 13 14 28 25 33 25 14 0 161 150 161 164 0 6 11 20 25 30
14 10 25 27 25 37 0 11 4 19 9 19 5 0 12 8 15 18 13 32 31 62 38 62 5 0 8 14
8 30 0 17 5 30 10 30 6 0 10 7 10 15 0 8 4 15 9 15 5 0 12 27 16 60 4 33 11
63 16 66 5 3 9 32 9 65 0 33 4 59 10 59 6 0 10 20 10 45 0 25 -4 45 -10 45 -6
0 -10 27 -10 60 0 66 16 79 48 41 10 -11 27 -22 40 -26 19 -5 22 -3 22 19 0
14 -4 26 -10 26 -5 0 -10 16 -10 35 0 19 -4 35 -10 35 -5 0 -10 11 -10 25 0
14 -4 25 -9 25 -4 0 -11 19 -14 41 -3 23 -10 45 -15 48 -5 3 -15 21 -23 39 -8
17 -17 32 -21 32 -3 0 -10 14 -13 32 -4 17 -13 38 -21 45 -15 15 -144 18 -144
3z m140 -150 l0 -50 -45 0 -45 0 0 50 0 50 45 0 45 0 0 -50z m-70 -300 l0 -70
-70 0 -70 0 0 70 0 70 70 0 70 0 0 -70z m30 -260 c0 -40 0 -40 -40 -40 -38 0
-52 12 -30 25 6 3 10 17 10 31 0 20 5 24 30 24 28 0 30 -2 30 -40z m-120 -205
c0 -16 -6 -25 -15 -25 -9 0 -15 9 -15 25 0 16 6 25 15 25 9 0 15 -9 15 -25z"/>
<path d="M870 2575 c0 -23 4 -25 45 -25 41 0 45 2 45 25 0 23 -4 25 -45 25
-41 0 -45 -2 -45 -25z"/>
<path d="M700 2555 c0 -23 4 -25 45 -25 41 0 45 2 45 25 0 23 -4 25 -45 25
-41 0 -45 -2 -45 -25z"/>
<path d="M2355 2553 c3 -16 15 -37 25 -47 16 -16 21 -17 35 -6 28 23 -4 80
-45 80 -19 0 -21 -4 -15 -27z"/>
<path d="M560 2540 c0 -5 -9 -10 -20 -10 -15 0 -20 -7 -20 -25 0 -28 20 -32
64 -15 37 14 37 60 1 60 -14 0 -25 -4 -25 -10z"/>
<path d="M1380 2540 c0 -5 -6 -10 -13 -10 -17 0 -67 -55 -67 -74 0 -9 -4 -16
-10 -16 -15 0 -12 -39 4 -56 8 -8 29 -17 45 -20 24 -5 31 -3 31 9 0 26 48 67
78 67 47 0 72 -11 72 -31 0 -11 5 -19 10 -19 6 0 10 -7 10 -15 0 -26 -37 -17
-44 10 -5 21 -12 25 -41 25 -28 0 -35 -4 -35 -20 0 -11 -4 -20 -10 -20 -5 0
-10 -9 -10 -21 0 -22 22 -49 39 -49 5 0 21 -11 35 -25 14 -14 30 -25 36 -25 5
0 10 -4 10 -10 0 -5 11 -10 25 -10 14 0 25 5 25 10 0 6 9 10 20 10 13 0 20 7
20 20 0 11 5 20 10 20 6 0 10 7 10 15 0 8 5 15 10 15 6 0 10 15 10 33 0 34
-20 87 -32 87 -5 0 -8 6 -8 14 0 8 -14 28 -31 45 -17 17 -37 31 -45 31 -8 0
-14 5 -14 10 0 6 -30 10 -70 10 -40 0 -70 -4 -70 -10z"/>
<path d="M926 2501 c-3 -4 -54 -11 -113 -15 -59 -4 -109 -11 -111 -16 -2 -6
-17 -10 -33 -10 -16 0 -29 -4 -29 -9 0 -5 -22 -12 -50 -16 l-50 -7 0 -54 c0
-30 -4 -54 -10 -54 -6 0 -10 -42 -10 -105 0 -96 2 -105 19 -105 17 0 31 -18
31 -41 0 -5 -13 -22 -30 -37 -26 -26 -30 -36 -29 -83 0 -30 3 -48 6 -41 2 6
13 12 23 12 10 0 20 7 24 15 3 8 15 15 26 15 11 0 20 4 20 8 0 5 16 14 35 22
19 8 35 17 35 21 0 4 25 11 55 14 30 4 55 11 55 16 0 5 17 9 39 9 l38 0 -2 47
c-1 26 -7 49 -13 51 -16 5 -15 30 2 48 17 16 56 19 56 4 0 -5 6 -10 13 -10 7
0 23 -11 35 -25 12 -14 17 -25 12 -25 -6 0 -10 -7 -10 -16 0 -8 -8 -23 -17
-32 -16 -16 -8 -17 117 -20 74 -1 139 -7 144 -12 6 -6 29 -10 53 -10 24 0 43
-4 43 -9 0 -4 21 -11 48 -14 49 -6 102 -27 102 -39 0 -5 9 -8 20 -8 18 0 19 2
8 23 -7 12 -17 25 -22 29 -10 7 16 38 32 38 6 0 12 -6 15 -12 3 -10 7 -10 20
1 14 11 20 11 32 1 18 -15 11 -47 -16 -71 -23 -20 -25 -39 -4 -39 8 0 20 -9
27 -20 7 -11 19 -20 26 -20 7 0 24 -11 38 -25 14 -14 30 -25 35 -25 13 0 69
-58 69 -72 0 -14 27 -38 43 -38 13 0 13 4 4 25 -7 14 -15 25 -19 25 -5 0 -8
14 -8 30 0 17 -4 30 -10 30 -5 0 -10 5 -10 11 0 19 -33 83 -52 100 -10 9 -18
23 -18 31 0 8 -11 24 -25 34 -14 10 -25 24 -25 30 0 6 -10 20 -22 31 -13 12
-42 42 -66 67 -24 25 -50 46 -57 46 -7 0 -22 11 -33 25 -11 14 -26 25 -34 25
-7 0 -19 9 -25 19 -7 11 -26 22 -43 26 -16 4 -30 11 -30 16 0 5 -9 9 -20 9
-11 0 -20 5 -20 10 0 6 -9 10 -20 10 -11 0 -20 4 -20 9 0 5 -26 13 -57 17 -32
4 -61 12 -65 18 -4 6 -11 7 -15 2 -4 -5 -2 -11 5 -13 6 -3 12 -16 12 -29 0
-13 5 -24 10 -24 6 0 10 -20 10 -45 0 -45 0 -45 -35 -45 -19 0 -35 5 -35 10 0
6 -13 10 -29 10 -29 0 -41 14 -41 51 0 14 7 19 25 19 20 0 25 5 25 25 0 14 5
25 10 25 6 0 10 5 10 10 0 6 -16 10 -35 10 -19 0 -35 5 -35 10 0 6 -20 10 -45
10 -25 0 -45 2 -45 4 0 3 21 25 48 50 46 44 46 46 20 46 -15 0 -29 -4 -32 -9z
m-192 -67 c9 -3 16 -15 16 -25 0 -10 3 -19 8 -19 10 0 42 -75 42 -100 0 -11
-7 -20 -15 -20 -8 0 -15 -4 -15 -10 0 -5 -20 -10 -44 -10 -27 0 -46 -5 -49
-12 -3 -10 -10 -10 -33 2 -44 23 -56 37 -52 67 2 23 8 29 36 31 17 2 32 7 32
13 0 5 -4 9 -10 9 -14 0 -12 54 2 68 13 13 56 16 82 6z m576 -194 c0 -5 7 -10
15 -10 20 0 55 -31 55 -49 0 -21 -30 -51 -52 -51 -10 0 -18 -4 -18 -10 0 -15
-19 -12 -37 6 -14 13 -14 19 -2 41 11 21 11 27 2 30 -7 3 -13 16 -13 29 0 19
5 24 25 24 14 0 25 -4 25 -10z"/>
<path d="M413 2445 c-7 -8 -13 -28 -13 -45 0 -25 4 -30 25 -30 23 0 25 4 25
45 0 47 -13 57 -37 30z"/>
<path d="M2442 2415 c-20 -9 -22 -15 -16 -50 7 -44 14 -57 21 -37 3 6 13 12
24 12 14 0 19 7 19 25 0 14 -4 25 -9 25 -5 0 -11 8 -13 18 -2 14 -7 15 -26 7z"/>
<path d="M1806 2348 c-3 -7 -7 -42 -10 -77 -4 -46 -11 -68 -26 -81 -11 -10
-20 -22 -20 -28 0 -18 -58 -72 -76 -72 -15 0 -15 -3 4 -23 12 -13 22 -28 22
-34 0 -10 22 -23 40 -23 15 0 110 100 110 115 0 8 5 15 10 15 6 0 10 9 10 20
0 11 5 20 10 20 6 0 10 16 10 35 0 19 -4 35 -10 35 -5 0 -10 9 -10 20 0 11 -4
20 -10 20 -5 0 -12 16 -16 35 -6 34 -31 48 -38 23z"/>
<path d="M400 2245 c0 -41 2 -45 25 -45 23 0 25 4 25 45 0 41 -2 45 -25 45
-23 0 -25 -4 -25 -45z"/>
<path d="M2483 2235 c-7 -8 -13 -17 -13 -20 0 -10 28 -35 38 -35 6 0 12 -6 14
-12 3 -9 9 -8 21 4 22 22 22 24 -8 53 -28 29 -35 30 -52 10z"/>
<path d="M2360 2166 c0 -8 5 -18 10 -21 6 -3 10 -32 10 -64 0 -58 0 -59 33
-65 18 -3 39 -15 47 -26 8 -11 22 -20 32 -20 10 0 18 -4 18 -9 0 -5 14 -12 30
-16 17 -4 36 -15 43 -26 6 -10 20 -19 29 -19 10 0 18 -3 18 -8 0 -4 18 -15 40
-25 22 -9 40 -21 40 -27 0 -5 9 -10 20 -10 11 0 20 -4 20 -10 0 -16 37 -11 44
6 16 42 3 94 -25 94 -10 0 -19 4 -19 9 0 5 -10 13 -22 17 -13 4 -30 15 -39 25
-9 11 -21 19 -26 19 -6 0 -16 7 -23 15 -7 8 -20 15 -30 15 -10 0 -20 7 -24 15
-3 8 -16 20 -28 25 -33 14 -60 32 -79 53 -9 9 -23 17 -32 17 -9 0 -20 6 -24
13 -8 11 -47 37 -58 37 -3 0 -5 -6 -5 -14z"/>
<path d="M1890 2125 c0 -8 -4 -15 -10 -15 -5 0 -10 -7 -10 -15 0 -8 -28 -42
-62 -76 -33 -33 -57 -64 -51 -67 5 -4 16 -22 24 -39 13 -31 39 -46 39 -23 0 6
6 10 13 10 21 1 93 74 100 102 4 15 4 52 1 83 -6 45 -10 55 -25 55 -11 0 -19
-7 -19 -15z"/>
<path d="M2621 2131 c-12 -8 -12 -11 0 -23 8 -7 27 -20 42 -28 25 -12 29 -12
37 0 12 18 12 22 2 36 -10 16 -64 26 -81 15z"/>
<path d="M393 2095 c-7 -8 -13 -28 -13 -45 0 -27 3 -30 30 -30 29 0 30 2 30
45 0 36 -3 45 -17 45 -10 -1 -24 -7 -30 -15z"/>
<path d="M2782 2044 c-16 -18 -9 -42 15 -51 10 -4 21 -11 25 -16 6 -10 38 14
38 28 0 12 -29 35 -43 35 -9 0 -17 4 -19 9 -1 5 -9 2 -16 -5z"/>
<path d="M895 2000 c-3 -5 -24 -10 -45 -10 -21 0 -42 -4 -45 -10 -3 -5 -17
-10 -31 -10 -13 0 -24 -4 -24 -10 0 -5 -9 -10 -21 -10 -20 0 -88 -27 -99 -39
-3 -4 -18 -13 -35 -21 -16 -8 -35 -19 -42 -25 -7 -5 -19 -16 -27 -22 -8 -7
-20 -13 -25 -13 -6 0 -16 -9 -23 -20 -21 -34 -28 -23 -28 45 l0 66 -35 -36
c-20 -19 -40 -35 -45 -35 -5 0 -12 -10 -15 -22 -4 -13 -23 -38 -41 -55 -19
-18 -34 -40 -34 -48 0 -8 -9 -20 -20 -27 -11 -7 -20 -19 -20 -27 0 -7 -10 -22
-22 -33 -29 -25 -32 -98 -6 -124 21 -22 68 -12 68 15 0 10 16 32 35 48 19 17
35 35 35 41 0 13 127 142 141 142 5 0 20 11 33 25 13 14 28 25 33 25 5 0 18 9
27 19 10 11 30 23 45 26 15 3 33 15 41 25 8 11 22 20 32 20 19 0 59 19 69 34
4 4 27 11 53 13 25 3 46 10 46 14 0 5 13 9 29 9 32 0 84 23 74 33 -10 11 -71
8 -78 -3z"/>
<path d="M2367 1984 c-4 -4 -7 -23 -7 -41 0 -37 19 -63 44 -63 9 0 16 -4 16
-10 0 -5 6 -10 14 -10 8 0 21 -6 28 -13 7 -7 28 -20 46 -28 17 -7 32 -17 32
-20 0 -4 14 -9 31 -13 18 -3 39 -14 48 -24 9 -9 30 -24 46 -32 17 -8 32 -18
35 -22 4 -4 20 -11 38 -14 29 -6 32 -4 32 20 0 14 5 26 10 26 6 0 10 9 10 20
0 11 -7 20 -15 20 -21 0 -95 33 -95 42 0 5 -6 8 -14 8 -7 0 -19 7 -26 15 -7 8
-21 15 -31 15 -11 0 -19 3 -19 8 0 4 -15 14 -32 21 -18 8 -39 23 -46 32 -7 10
-28 21 -47 25 -19 3 -35 10 -35 14 0 4 -8 10 -17 14 -10 3 -23 8 -29 11 -5 3
-13 2 -17 -1z"/>
<path d="M1010 1961 c0 -5 -34 -12 -75 -16 -41 -4 -75 -11 -75 -16 0 -5 -9 -9
-20 -9 -11 0 -20 -4 -20 -10 0 -5 -11 -10 -25 -10 -14 0 -25 -4 -25 -10 0 -5
-9 -10 -20 -10 -11 0 -20 -4 -20 -10 0 -5 -5 -10 -11 -10 -19 0 -83 -33 -100
-52 -9 -10 -23 -18 -31 -18 -8 0 -24 -11 -34 -25 -10 -14 -23 -25 -29 -25 -13
0 -175 -158 -175 -172 0 -5 -15 -24 -32 -40 -29 -27 -33 -37 -32 -78 0 -37 6
-53 27 -74 14 -14 29 -26 32 -26 11 0 35 28 35 41 0 6 8 19 18 28 17 17 37 44
49 71 11 24 196 204 226 219 15 8 27 18 27 23 0 4 5 8 11 8 7 0 19 8 28 19 9
10 31 22 49 25 17 4 32 11 32 15 0 4 16 13 35 21 19 8 35 17 35 21 0 4 20 11
45 15 25 3 45 10 45 15 0 5 16 9 35 9 19 0 35 5 35 10 0 6 16 10 35 10 19 0
35 5 35 10 0 6 26 10 59 10 33 0 63 5 66 10 3 6 34 11 68 11 34 1 52 4 40 6
-13 2 -23 9 -23 14 0 5 -68 9 -160 9 -88 0 -160 -4 -160 -9z"/>
<path d="M312 1927 c-26 -28 -27 -34 -7 -53 16 -17 15 -17 60 34 16 20 17 25
5 32 -23 15 -35 12 -58 -13z"/>
<path d="M1930 1939 c0 -12 -25 -39 -37 -39 -5 0 -23 -13 -41 -29 -32 -30 -45
-85 -21 -93 6 -2 13 -57 16 -141 5 -114 9 -137 20 -132 8 3 17 5 19 5 2 0 4
14 4 30 0 17 5 30 10 30 6 0 10 11 10 24 0 13 5 26 12 28 12 4 26 328 14 328
-3 0 -6 -5 -6 -11z"/>
<path d="M2860 1876 c0 -43 2 -46 26 -46 23 0 25 3 22 43 -2 35 -7 43 -25 45
-21 3 -23 -1 -23 -42z"/>
<path d="M1220 1890 c0 -5 -22 -10 -50 -10 -27 0 -50 -4 -50 -9 0 -4 -30 -11
-67 -14 -38 -4 -69 -11 -71 -17 -2 -5 -11 -10 -21 -10 -21 0 -71 -22 -71 -32
0 -4 -16 -10 -35 -14 -19 -3 -35 -10 -35 -15 0 -5 -5 -9 -10 -9 -6 0 -20 -9
-32 -20 -12 -11 -28 -20 -35 -20 -7 0 -13 -4 -13 -9 0 -5 -9 -13 -21 -16 -27
-9 -239 -221 -239 -239 0 -8 -7 -16 -15 -20 -8 -3 -15 -13 -15 -23 0 -10 -9
-24 -20 -31 -11 -7 -20 -17 -20 -23 0 -7 -10 -20 -22 -31 l-22 -19 22 -15 c12
-8 22 -20 22 -25 0 -5 11 -21 25 -35 14 -14 25 -30 25 -35 0 -6 7 -17 15 -25
22 -22 42 1 50 59 4 26 11 47 16 47 5 0 9 9 9 20 0 11 4 20 9 20 5 0 12 13 16
29 3 16 15 37 26 47 10 9 19 21 19 26 0 5 11 21 25 36 14 15 25 31 25 35 0 12
116 127 128 127 6 0 25 15 44 34 19 19 46 38 61 41 14 4 33 15 43 26 9 10 23
19 31 19 7 0 13 3 13 8 0 10 75 42 100 42 11 0 20 5 20 10 0 6 11 10 25 10 14
0 25 5 25 10 0 6 15 10 34 10 19 0 36 5 38 11 3 8 56 12 173 13 94 0 160 2
148 4 -13 2 -23 8 -23 13 0 5 -7 9 -15 9 -8 0 -15 5 -15 10 0 6 -52 10 -135
10 -83 0 -135 -4 -135 -10z"/>
<path d="M2350 1846 c0 -9 -4 -16 -10 -16 -5 0 -10 -16 -10 -35 0 -24 5 -35
15 -35 8 0 15 -4 15 -10 0 -5 9 -10 20 -10 11 0 20 -3 20 -8 0 -9 74 -42 95
-42 8 0 15 -4 15 -10 0 -5 7 -10 15 -10 8 0 15 -4 15 -10 0 -5 9 -10 19 -10
10 0 21 -7 25 -15 3 -8 14 -15 25 -15 11 0 21 -4 23 -8 5 -13 71 -40 85 -35 7
3 13 15 13 27 0 12 5 27 12 34 9 9 8 12 -4 12 -9 0 -23 8 -30 19 -7 10 -28 22
-46 25 -17 4 -32 12 -32 17 0 5 -9 9 -20 9 -11 0 -20 5 -20 10 0 6 -6 10 -13
10 -7 0 -19 9 -27 20 -8 11 -29 23 -47 26 -18 3 -33 10 -33 15 0 5 -9 9 -19 9
-11 0 -23 9 -26 20 -3 11 -12 20 -18 20 -7 0 -22 3 -34 6 -17 5 -23 2 -23 -10z"/>
<path d="M188 1789 c-24 -26 -22 -42 7 -56 21 -9 25 -9 25 6 0 9 9 23 20 31
11 8 20 20 20 27 0 20 -53 14 -72 -8z"/>
<path d="M1228 1783 c-21 -2 -38 -8 -38 -14 0 -5 -16 -9 -35 -9 -19 0 -35 -4
-35 -10 0 -5 -9 -10 -20 -10 -11 0 -20 -4 -20 -10 0 -5 -11 -10 -25 -10 -14 0
-25 -4 -25 -9 0 -5 -15 -12 -33 -15 -18 -3 -39 -15 -47 -26 -8 -11 -20 -20
-27 -20 -7 0 -13 -4 -13 -9 0 -5 -10 -13 -22 -17 -12 -4 -42 -26 -66 -50 -24
-24 -50 -44 -58 -44 -8 0 -14 -6 -14 -13 0 -7 -20 -33 -45 -58 -24 -24 -45
-48 -45 -53 0 -5 -7 -18 -17 -28 -19 -22 -16 -26 24 -34 27 -5 31 -3 37 20 10
40 26 31 26 -15 0 -32 4 -42 20 -46 11 -3 20 -9 20 -13 0 -5 8 -11 18 -13 9
-3 -4 -5 -30 -6 l-48 -1 -1 -47 c-1 -27 -3 -40 -6 -30 -2 9 -9 17 -14 17 -5 0
-9 9 -9 20 0 16 -7 20 -34 20 -19 0 -36 -6 -39 -12 -2 -7 -8 -10 -12 -6 -5 5
3 18 18 30 20 18 24 29 20 51 -3 15 -7 27 -10 27 -11 0 -33 -30 -33 -44 0 -9
-4 -16 -9 -16 -5 0 -11 -18 -15 -40 -3 -22 -11 -40 -16 -40 -6 0 -10 -11 -10
-24 0 -14 -4 -28 -10 -31 -5 -3 -10 -18 -10 -33 0 -37 -11 -72 -21 -72 -5 0
-9 5 -9 10 0 14 -46 60 -60 60 -6 0 -10 -55 -10 -160 0 -100 4 -160 10 -160 6
0 10 -17 10 -37 0 -21 4 -42 8 -48 13 -19 52 -35 82 -35 16 0 30 -4 30 -9 0
-5 29 -12 65 -16 36 -3 67 -11 70 -16 4 -5 22 -9 41 -9 19 0 34 -4 34 -10 0
-5 20 -10 45 -10 25 0 45 -4 45 -9 0 -5 18 -11 40 -13 l40 -4 -6 36 c-4 19
-11 37 -15 38 -5 2 -9 17 -9 33 0 16 -4 29 -10 29 -5 0 -10 16 -10 35 0 19 -4
35 -10 35 -6 0 -10 35 -10 85 0 66 -3 85 -14 85 -7 0 -19 -7 -26 -15 -9 -10
-9 -15 -1 -15 6 0 11 -13 11 -30 0 -16 5 -30 11 -30 5 0 7 -5 4 -10 -4 -7 -14
-3 -25 10 -9 11 -22 20 -28 20 -6 0 -12 6 -15 13 -2 7 -16 0 -35 -21 -28 -30
-33 -32 -39 -16 -4 10 -2 19 5 22 20 6 13 46 -13 74 -14 15 -25 30 -25 33 0 3
20 5 45 5 42 0 45 2 45 26 0 22 2 25 15 14 8 -7 15 -19 15 -26 0 -9 12 -14 35
-14 l35 0 0 70 c0 40 4 70 10 70 6 0 10 18 10 40 0 22 5 40 10 40 6 0 10 14
10 30 0 17 4 30 9 30 5 0 11 18 15 40 3 22 11 40 16 40 6 0 10 14 10 30 0 17
5 30 10 30 6 0 10 6 10 14 0 8 6 21 13 28 6 7 19 27 27 43 8 17 25 41 38 55
12 14 22 28 22 32 0 12 111 118 124 118 6 0 18 9 26 20 8 11 21 20 29 20 7 0
21 8 30 18 9 11 23 21 31 25 16 6 -33 6 -92 0z m-288 -249 c0 -9 9 -18 21 -21
19 -5 18 -7 -10 -20 -27 -13 -32 -13 -46 0 -25 25 -19 57 10 57 16 0 25 -6 25
-16z m-333 -745 c27 0 27 -1 6 -9 -16 -7 -23 -18 -23 -36 0 -22 -2 -25 -15
-14 -10 9 -15 9 -15 1 0 -6 -4 -11 -10 -11 -5 0 -10 13 -10 29 0 20 -6 31 -17
34 -11 3 -7 5 10 6 21 1 27 6 28 24 l0 22 9 -22 c7 -16 18 -23 37 -24z"/>
<path d="M2285 1699 c-4 -22 -5 -41 -3 -42 1 -1 12 -8 23 -15 11 -7 28 -15 38
-18 9 -4 17 -10 17 -15 0 -5 9 -9 20 -9 11 0 20 -4 20 -10 0 -5 6 -10 14 -10
8 0 21 -6 28 -12 7 -7 27 -20 43 -28 17 -8 36 -21 43 -27 22 -21 49 -15 56 12
4 14 11 25 16 25 6 0 10 5 10 11 0 14 -25 39 -39 39 -6 0 -11 5 -11 10 0 6 -9
10 -20 10 -10 0 -23 6 -27 13 -10 16 -49 37 -68 37 -8 0 -15 5 -15 10 0 6 -4
10 -10 10 -17 0 -90 34 -90 42 0 5 -9 8 -19 8 -15 0 -21 -10 -26 -41z"/>
<path d="M2820 1701 c0 -22 5 -43 10 -46 19 -12 40 16 40 51 0 30 -3 34 -25
34 -22 0 -25 -4 -25 -39z"/>
<path d="M100 1650 c0 -11 -5 -20 -11 -20 -19 0 -5 -45 16 -48 27 -4 53 51 35
73 -18 21 -40 18 -40 -5z"/>
<path d="M2240 1619 c0 -6 -7 -17 -15 -25 -17 -18 -9 -44 14 -44 9 0 23 -9 31
-20 8 -11 29 -23 47 -26 19 -4 35 -14 38 -25 4 -10 15 -19 26 -19 10 0 19 -4
19 -9 0 -5 11 -12 25 -15 14 -4 25 -11 25 -16 0 -18 49 -11 70 10 30 30 25 44
-25 64 -25 11 -45 22 -45 25 0 3 -15 13 -32 20 -18 8 -39 21 -46 28 -7 7 -20
13 -28 13 -8 0 -14 5 -14 10 0 6 -9 10 -19 10 -10 0 -21 7 -25 15 -6 17 -46
21 -46 4z"/>
<path d="M1138 1560 c-21 -22 -38 -43 -38 -48 0 -5 -9 -17 -20 -27 -11 -10
-20 -24 -20 -32 0 -7 -7 -16 -15 -19 -8 -4 -15 -12 -15 -18 0 -18 -24 -66 -32
-66 -4 0 -11 -18 -14 -40 -4 -22 -10 -40 -15 -40 -5 0 -9 -13 -9 -29 0 -16 -4
-31 -10 -33 -5 -1 -12 -36 -16 -75 -4 -40 -11 -73 -15 -73 -5 0 -9 -49 -9
-110 0 -109 0 -110 25 -116 14 -3 25 -10 25 -15 0 -5 7 -9 15 -9 8 0 15 5 15
10 0 13 38 50 68 68 26 14 92 16 92 2 0 -15 29 -12 46 4 16 17 19 56 4 56 -5
0 -10 11 -10 25 0 14 -4 25 -10 25 -5 0 -10 13 -10 29 0 16 -6 31 -12 33 -19
7 -19 439 0 445 6 3 12 15 12 28 0 13 5 27 10 30 12 7 14 35 3 34 -5 0 -25
-18 -45 -39z"/>
<path d="M2770 1566 c0 -9 -4 -16 -10 -16 -16 0 -12 -40 6 -57 13 -14 17 -14
25 -2 5 8 9 20 9 27 0 6 5 12 10 12 6 0 10 9 10 20 0 11 -4 20 -9 20 -5 0 -16
3 -25 6 -11 4 -16 1 -16 -10z"/>
<path d="M2630 1540 c0 -16 5 -30 10 -30 6 0 10 -12 10 -26 0 -22 2 -25 15
-14 8 7 15 19 15 26 0 8 5 14 10 14 6 0 10 9 10 20 0 13 -7 20 -20 20 -11 0
-20 5 -20 10 0 6 -7 10 -15 10 -10 0 -15 -10 -15 -30z"/>
<path d="M2166 1504 c-9 -35 2 -64 23 -64 10 0 27 -11 37 -25 10 -14 26 -25
34 -25 8 0 21 -9 28 -20 7 -11 19 -20 27 -20 8 0 25 -11 37 -25 28 -32 32 -31
68 5 32 33 39 60 15 60 -8 0 -15 5 -15 10 0 6 -9 10 -20 10 -11 0 -20 4 -20 9
0 5 -10 13 -22 17 -13 4 -30 15 -39 25 -9 11 -21 19 -28 19 -6 0 -11 5 -11 10
0 6 -8 10 -19 10 -10 0 -24 7 -31 15 -21 25 -57 19 -64 -11z"/>
<path d="M80 1492 c0 -25 37 -63 55 -56 20 8 19 29 -2 54 -22 25 -53 26 -53 2z"/>
<path d="M2584 1438 c-3 -12 -40 -55 -81 -95 l-74 -73 40 0 c31 0 41 -4 46
-20 3 -11 11 -20 16 -20 17 0 9 -74 -10 -97 -14 -17 -30 -23 -58 -23 -52 0
-83 32 -83 83 0 36 -20 51 -35 27 -3 -5 -23 -17 -43 -27 -20 -9 -39 -20 -42
-23 -3 -4 -18 -10 -35 -14 -42 -10 -85 -29 -85 -38 0 -5 -16 -8 -35 -8 -19 0
-35 -4 -35 -10 0 -5 -16 -10 -35 -10 -19 0 -35 -4 -35 -10 0 -6 -65 -10 -175
-10 -110 0 -175 4 -175 10 0 6 -20 10 -45 10 -25 0 -45 5 -45 10 0 6 -13 10
-30 10 -16 0 -30 3 -30 8 0 8 -73 42 -90 42 -6 0 -10 5 -10 10 0 6 -6 10 -14
10 -7 0 -19 7 -26 15 -7 8 -16 15 -21 15 -18 0 -8 -26 16 -44 14 -10 25 -25
25 -33 0 -16 114 -133 129 -133 6 0 21 -11 35 -25 14 -14 30 -25 36 -25 5 0
10 -4 10 -10 0 -5 9 -10 19 -10 11 0 26 -7 35 -15 8 -8 19 -15 25 -15 6 0 11
-4 11 -10 0 -5 9 -10 20 -10 11 0 20 -4 20 -10 0 -5 11 -10 25 -10 14 0 25 -4
25 -10 0 -5 18 -13 40 -16 22 -4 40 -10 40 -15 0 -5 20 -9 44 -9 25 0 48 -4
51 -10 4 -6 68 -10 161 -10 96 0 154 4 154 10 0 6 15 10 34 10 19 0 36 4 38 9
2 5 23 12 48 15 25 4 41 4 35 -1 -36 -29 -46 -93 -15 -93 11 0 20 3 20 8 0 7
72 42 86 42 4 0 14 8 23 19 9 10 31 22 49 25 29 7 46 26 22 26 -13 0 -23 44
-15 69 5 16 15 21 41 21 24 0 34 -5 34 -15 0 -24 29 -18 61 12 29 28 38 66 19
78 -5 3 -10 19 -10 35 0 16 -4 31 -9 34 -5 3 -12 26 -15 51 -4 24 -11 47 -17
50 -5 4 -9 22 -9 41 0 19 -4 34 -9 34 -5 0 -13 25 -16 55 -4 30 -11 58 -16 61
-5 3 -9 14 -9 25 0 19 -21 49 -34 49 -2 0 -8 -10 -12 -22z m-924 -433 c0 -37
-12 -44 -36 -21 -17 18 -17 23 -1 41 22 25 37 17 37 -20z m670 -20 c0 -8 5
-15 10 -15 14 0 12 -39 -2 -53 -7 -7 -26 -19 -42 -27 -23 -12 -30 -12 -33 -2
-3 6 -13 12 -24 12 -15 0 -19 7 -19 38 0 49 14 62 67 62 32 0 43 -4 43 -15z
m-344 -49 c30 -31 6 -76 -41 -76 -15 0 -33 6 -41 14 -16 17 -19 46 -4 46 6 0
10 7 10 15 0 20 56 20 76 1z"/>
<path d="M2087 1425 c-19 -18 -23 -55 -6 -55 6 0 17 -6 24 -12 31 -28 44 -38
50 -38 4 0 22 -16 41 -35 18 -19 40 -35 49 -35 8 0 15 -4 15 -10 0 -17 25 -11
40 10 8 11 22 20 32 20 10 0 18 7 18 15 0 8 -6 15 -13 15 -7 0 -22 8 -33 19
-11 10 -30 22 -42 25 -12 4 -22 12 -22 17 0 5 -6 9 -14 9 -7 0 -24 13 -38 30
-31 37 -78 49 -101 25z"/>
<path d="M2714 1395 c-8 -19 18 -75 34 -75 7 0 20 7 28 15 9 8 11 15 5 15 -6
0 -11 14 -11 30 0 25 -4 30 -25 30 -14 0 -28 -7 -31 -15z"/>
<path d="M1190 1365 c0 -14 -4 -25 -10 -25 -5 0 -10 -20 -10 -45 0 -25 5 -45
10 -45 6 0 10 -30 10 -70 0 -69 12 -91 26 -47 4 12 15 29 25 38 18 16 27 79
11 79 -11 0 -30 49 -38 98 -7 45 -24 58 -24 17z"/>
<path d="M195 1349 c-5 -14 0 -28 16 -45 26 -28 28 -28 53 -9 19 14 19 15 -2
34 -12 10 -22 23 -22 30 0 20 -38 12 -45 -10z"/>
<path d="M2018 1351 c-10 -10 -18 -24 -18 -32 0 -15 74 -89 89 -89 4 0 18 -11
31 -25 23 -25 70 -35 70 -15 0 6 7 10 15 10 8 0 15 7 15 15 0 8 -5 15 -11 15
-6 0 -25 16 -43 35 -19 19 -39 35 -45 35 -7 0 -27 16 -45 35 -19 19 -35 35
-37 34 -2 0 -12 -8 -21 -18z"/>
<path d="M1940 1290 c0 -5 -6 -10 -12 -10 -7 0 -20 -4 -28 -10 -12 -7 -11 -12
8 -28 12 -11 22 -24 22 -31 0 -20 73 -82 84 -71 6 6 21 10 36 10 56 0 56 15 2
69 -28 28 -56 51 -61 51 -5 0 -14 7 -21 15 -14 17 -30 20 -30 5z"/>
<path d="M303 1215 c-17 -19 -16 -25 9 -46 23 -21 36 -23 57 -10 12 8 12 12
-2 26 -10 9 -17 23 -17 31 0 18 -31 18 -47 -1z"/>
<path d="M1813 1215 c-17 -19 -16 -25 5 -44 9 -9 22 -25 28 -36 12 -22 84 -35
84 -16 0 6 7 11 15 11 23 0 19 7 -32 55 -49 46 -79 55 -100 30z"/>
<path d="M2770 1205 c0 -14 5 -25 10 -25 6 0 10 -7 10 -15 0 -17 18 -19 40 -4
11 8 12 12 3 16 -7 2 -13 16 -13 29 0 19 -5 24 -25 24 -20 0 -25 -5 -25 -25z"/>
<path d="M1720 1190 c0 -5 -16 -10 -35 -10 -19 0 -35 -4 -35 -10 0 -5 -21 -11
-47 -11 -27 -1 -40 -3 -30 -6 9 -2 17 -9 17 -14 0 -5 22 -9 49 -9 28 0 53 -4
56 -10 3 -5 28 -10 56 -10 43 0 49 3 49 20 0 11 -7 23 -15 26 -8 4 -15 15 -15
25 0 14 -7 19 -25 19 -14 0 -25 -4 -25 -10z"/>
<path d="M1270 1145 c-8 -19 -17 -35 -22 -35 -4 0 -8 -9 -8 -20 0 -11 -4 -20
-10 -20 -5 0 -10 -18 -10 -40 0 -22 5 -40 10 -40 6 0 10 -13 10 -30 0 -16 5
-30 10 -30 6 0 10 -7 10 -15 0 -8 5 -15 10 -15 6 0 10 -9 10 -21 0 -11 4 -18
9 -15 5 3 12 40 16 81 4 41 11 75 16 75 5 0 9 9 9 20 0 11 5 20 10 20 17 0 11
42 -9 59 -10 9 -21 26 -25 39 -10 31 -20 28 -36 -13z"/>
<path d="M2832 1058 c-15 -15 -16 -58 -2 -58 6 0 10 -7 10 -15 0 -8 5 -15 10
-15 6 0 10 5 10 10 0 6 7 10 15 10 8 0 15 7 15 15 0 8 -4 15 -10 15 -5 0 -10
11 -10 25 0 27 -18 33 -38 13z"/>
<path d="M323 1045 c-7 -8 -13 -28 -13 -45 0 -25 4 -30 25 -30 23 0 25 4 25
45 0 47 -13 57 -37 30z"/>
<path d="M1369 1053 c-7 -43 -22 -94 -30 -99 -13 -7 -11 -144 1 -144 6 0 10
-14 10 -31 0 -21 9 -40 25 -55 14 -13 25 -28 25 -34 0 -16 106 -120 122 -120
7 0 24 -14 37 -30 13 -17 29 -30 37 -30 8 0 14 -4 14 -9 0 -5 16 -12 35 -15
19 -4 35 -11 35 -16 0 -6 25 -10 55 -10 30 0 55 4 55 9 0 5 23 11 50 15 28 4
50 11 50 16 0 6 8 10 18 10 9 0 23 9 30 20 7 11 17 20 23 20 13 0 69 55 69 69
0 5 9 16 20 24 11 8 22 31 26 55 l7 42 -52 0 c-34 0 -51 -4 -51 -12 0 -7 -15
-28 -33 -45 -46 -46 -58 -56 -92 -73 -16 -8 -33 -19 -36 -23 -9 -12 -183 -10
-187 3 -2 5 -12 10 -23 10 -10 0 -19 5 -19 10 0 6 -6 10 -13 10 -18 0 -87 67
-87 85 0 8 -4 15 -10 15 -5 0 -10 9 -10 20 0 11 -4 20 -10 20 -5 0 -10 11 -10
25 0 14 -4 25 -10 25 -6 0 -10 30 -10 70 0 40 4 70 10 70 6 0 10 10 10 23 0
36 -76 111 -81 80z"/>
<path d="M1470 880 c0 -38 4 -70 9 -70 5 0 11 -17 15 -39 10 -62 110 -151 172
-151 13 0 26 -4 29 -10 8 -13 55 -13 55 0 0 6 16 10 35 10 19 0 35 5 35 10 0
6 6 10 14 10 20 0 106 84 106 103 0 11 -8 17 -24 17 -14 0 -28 5 -31 10 -10
15 -36 12 -54 -7 -9 -10 -26 -24 -38 -30 -27 -15 -133 -17 -133 -3 0 6 -5 10
-10 10 -14 0 -60 46 -60 60 0 5 -4 10 -10 10 -5 0 -10 19 -10 43 0 23 -4 47
-8 53 -8 11 -69 44 -84 44 -4 0 -8 -31 -8 -70z"/>
<path d="M2754 896 c-18 -19 -19 -25 -9 -39 7 -9 17 -17 22 -17 14 0 53 48 53
65 0 23 -42 17 -66 -9z"/>
<path d="M310 849 c0 -30 19 -59 39 -59 6 0 11 20 11 45 0 41 -2 45 -25 45
-21 0 -25 -5 -25 -31z"/>
<path d="M1610 855 c0 -14 5 -25 10 -25 6 0 10 -9 10 -20 0 -13 9 -22 25 -26
14 -3 25 -10 25 -15 0 -5 20 -9 45 -9 25 0 45 4 45 9 0 5 8 12 18 14 16 4 16
5 0 6 -10 0 -18 6 -18 11 0 6 -9 10 -20 10 -11 0 -20 5 -20 10 0 6 -4 10 -10
10 -17 0 -90 34 -90 42 0 5 -4 8 -10 8 -5 0 -10 -11 -10 -25z"/>
<path d="M1080 851 c0 -5 -11 -12 -25 -15 -16 -4 -25 -13 -25 -25 0 -15 -10
-21 -40 -26 -21 -4 -45 -3 -51 1 -9 5 -10 -6 -5 -42 8 -53 26 -104 38 -104 5
0 8 -13 8 -30 l0 -30 65 0 c64 0 67 1 108 43 46 46 87 73 87 57 0 -15 59 -12
76 4 16 16 19 36 5 36 -5 0 -14 14 -20 30 -5 17 -17 33 -26 36 -8 3 -15 15
-15 25 0 10 -4 19 -10 19 -5 0 -10 7 -10 15 0 17 -45 21 -55 5 -3 -5 -15 -10
-26 -10 -10 0 -19 5 -19 10 0 6 -13 10 -30 10 -16 0 -30 -4 -30 -9z"/>
<path d="M2630 800 c0 -5 -9 -10 -20 -10 -15 0 -20 -7 -20 -25 0 -18 5 -25 20
-25 11 0 20 5 20 10 0 6 6 10 14 10 22 0 38 24 24 38 -15 15 -38 16 -38 2z"/>
<path d="M2292 768 c-7 -7 -12 -20 -12 -30 0 -10 -4 -18 -10 -18 -5 0 -10 -16
-10 -35 0 -19 -3 -35 -8 -35 -7 0 -42 -72 -42 -88 0 -4 -9 -14 -20 -22 -11 -8
-20 -21 -20 -28 0 -16 -106 -122 -122 -122 -6 0 -18 -8 -27 -19 -9 -10 -27
-22 -41 -26 -29 -9 -50 -24 -50 -36 0 -5 47 -9 105 -9 98 0 105 1 105 20 0 11
4 20 10 20 5 0 13 18 16 40 4 22 10 40 15 40 5 0 9 9 9 20 0 11 4 20 9 20 5 0
12 13 16 30 4 16 11 32 16 35 5 4 9 17 9 31 0 13 5 24 10 24 6 0 10 9 10 20 0
11 4 20 9 20 5 0 12 15 16 33 7 37 26 79 39 88 10 8 1 39 -12 39 -4 0 -13 -5
-20 -12z"/>
<path d="M2210 750 c0 -5 -14 -10 -31 -10 -30 0 -59 -19 -59 -39 0 -6 -4 -11
-10 -11 -5 0 -10 -9 -10 -20 0 -11 -4 -20 -9 -20 -5 0 -12 -11 -15 -25 -4 -14
-11 -25 -16 -25 -6 0 -10 -5 -10 -10 0 -11 -45 -60 -55 -60 -3 0 -17 -11 -31
-25 -14 -14 -31 -25 -39 -25 -8 0 -15 -4 -15 -10 0 -5 -11 -10 -24 -10 -14 0
-28 -4 -31 -10 -3 -5 -19 -10 -36 -10 -19 0 -29 -5 -29 -15 0 -8 -9 -15 -20
-15 -11 0 -20 -4 -20 -10 0 -5 -5 -10 -11 -10 -11 0 -39 -24 -39 -34 0 -2 26
-8 58 -12 31 -4 60 -12 65 -18 5 -8 9 -8 15 1 4 6 28 14 55 18 26 4 47 11 47
16 0 5 8 9 18 9 10 0 24 9 32 20 8 11 19 20 26 20 6 0 27 17 47 38 19 20 49
49 65 63 17 15 33 41 37 58 4 17 11 31 16 31 5 0 9 9 9 20 0 11 4 20 10 20 5
0 13 18 16 40 4 22 10 40 15 40 5 0 9 9 9 20 0 11 -7 20 -15 20 -8 0 -15 -4
-15 -10z"/>
<path d="M2442 708 c-20 -20 -15 -58 8 -58 11 0 20 5 20 10 0 6 9 10 19 10 20
0 35 25 25 41 -8 13 -58 11 -72 -3z"/>
<path d="M350 665 c0 -41 2 -45 25 -45 21 0 25 5 25 31 0 30 -19 59 -39 59 -6
0 -11 -20 -11 -45z"/>
<path d="M1330 654 c-14 -7 -44 -14 -68 -14 -35 0 -49 -6 -77 -35 -19 -19 -35
-39 -35 -45 0 -6 -27 -10 -64 -10 -65 0 -88 -12 -67 -33 18 -18 13 -27 -14
-27 -14 0 -25 5 -25 10 0 6 -9 10 -20 10 -11 0 -20 -7 -20 -15 0 -8 5 -15 10
-15 6 0 10 -7 10 -16 0 -9 16 -31 35 -50 19 -18 35 -39 35 -47 0 -9 5 -17 12
-19 18 -6 58 3 58 13 0 5 36 9 80 9 61 0 80 3 80 14 0 21 78 96 100 96 11 0
20 -5 20 -11 0 -18 52 -5 64 16 6 11 19 27 29 36 17 16 15 20 -48 83 -36 36
-67 66 -68 65 -1 -1 -13 -7 -27 -15z"/>
<path d="M2350 600 c0 -11 -4 -20 -10 -20 -5 0 -10 -11 -10 -25 0 -20 5 -25
25 -25 20 0 25 5 25 24 0 13 6 26 12 28 9 3 8 9 -4 21 -22 23 -38 21 -38 -3z"/>
<path d="M450 575 c0 -22 4 -25 35 -25 19 0 35 -4 35 -10 0 -5 5 -10 10 -10
15 0 12 39 -4 56 -8 8 -28 14 -45 14 -26 0 -31 -4 -31 -25z"/>
<path d="M630 543 c0 -21 7 -31 27 -40 42 -20 53 -16 53 17 0 25 -4 30 -25 30
-14 0 -25 5 -25 10 0 6 -7 10 -15 10 -10 0 -15 -10 -15 -27z"/>
<path d="M800 500 c0 -12 45 -60 55 -60 8 0 35 27 35 35 0 4 -6 13 -14 21 -17
16 -76 19 -76 4z"/>
<path d="M1520 500 c0 -5 -7 -10 -15 -10 -8 0 -15 -5 -15 -11 0 -16 -26 -39
-44 -39 -9 0 -16 -4 -16 -10 0 -5 -11 -10 -25 -10 -14 0 -25 5 -25 10 0 18
-25 11 -50 -15 -37 -36 -50 -53 -50 -65 0 -6 -32 -10 -82 -10 -53 -1 -89 -5
-100 -14 -16 -12 -13 -18 34 -66 47 -49 56 -53 97 -53 25 0 47 5 49 11 2 7 10
12 18 12 8 0 14 5 14 10 0 6 9 10 20 10 11 0 20 5 20 10 0 6 7 10 15 10 8 0
15 4 15 9 0 5 16 12 35 15 19 4 35 11 35 16 0 6 9 10 20 10 11 0 20 4 20 9 0
5 13 12 30 16 16 4 32 11 35 16 4 5 17 9 31 9 13 0 24 5 24 10 0 6 9 10 19 10
21 0 31 17 23 38 -2 6 -11 12 -19 12 -9 0 -23 8 -32 19 -9 10 -26 21 -38 25
-13 4 -23 12 -23 17 0 5 -4 9 -10 9 -5 0 -10 -4 -10 -10z"/>
<path d="M2273 425 c-17 -18 -16 -43 0 -59 10 -11 15 -11 25 0 7 7 12 20 12
29 0 8 5 15 10 15 6 0 10 7 10 15 0 19 -41 19 -57 0z"/>
<path d="M921 374 c-8 -9 -10 -19 -5 -23 5 -3 14 -15 20 -26 6 -11 18 -21 26
-23 22 -4 33 30 14 44 -9 6 -16 19 -16 28 0 20 -21 20 -39 0z"/>
<path d="M1656 304 c-10 -25 -7 -34 9 -34 8 0 15 -4 15 -10 0 -5 11 -10 25
-10 20 0 25 5 25 25 0 20 -5 25 -25 25 -14 0 -25 5 -25 10 0 16 -17 12 -24 -6z"/>
<path d="M2210 270 c0 -11 -4 -20 -10 -20 -5 0 -10 -11 -10 -25 0 -14 4 -25 9
-25 23 0 41 14 41 30 0 10 6 20 12 22 9 3 8 9 -4 21 -22 23 -38 21 -38 -3z"/>
<path d="M1513 256 c-28 -13 -32 -56 -5 -56 44 0 62 12 62 41 0 32 -16 36 -57
15z"/>
<path d="M1820 240 c0 -29 2 -30 45 -30 43 0 45 1 45 30 0 29 -2 30 -45 30
-43 0 -45 -1 -45 -30z"/>
<path d="M1043 235 c-17 -19 -17 -21 9 -50 25 -29 34 -31 54 -11 20 20 17 36
-6 36 -13 0 -20 7 -20 20 0 23 -19 26 -37 5z"/>
<path d="M2006 234 c-11 -29 -6 -34 34 -34 36 0 40 3 40 25 0 22 -4 25 -34 25
-22 0 -36 -6 -40 -16z"/>
<path d="M1353 166 c-30 -14 -32 -56 -3 -56 11 0 20 5 20 10 0 6 6 10 13 10 6
0 18 4 26 9 12 8 12 12 -2 25 -18 18 -23 18 -54 2z"/>
<path d="M1170 114 c0 -23 38 -54 67 -54 30 0 29 15 -2 45 -28 29 -65 33 -65
9z"/>
</g>
</svg>
