<?xml version="1.0" standalone="no"?>
<!DOCTYPE svg PUBLIC "-//W3C//DTD SVG 20010904//EN"
 "http://www.w3.org/TR/2001/REC-SVG-20010904/DTD/svg10.dtd">
<svg version="1.0" xmlns="http://www.w3.org/2000/svg"
 width="900.000000pt" height="450.000000pt" viewBox="0 0 900.000000 450.000000"
 preserveAspectRatio="xMidYMid meet">
<metadata>
Created by potrace 1.10, written by Peter Selinger 2001-2011
</metadata>
<g transform="translate(0.000000,450.000000) scale(0.100000,-0.100000)"
fill="#000000" stroke="none">
<path d="M132 3500 c-12 -12 -22 -32 -22 -46 0 -14 57 -159 126 -322 70 -164
142 -335 161 -382 19 -47 92 -220 163 -385 70 -165 151 -356 180 -425 29 -69
110 -260 180 -425 70 -165 146 -346 170 -403 56 -136 65 -142 192 -142 141 0
136 -5 188 165 32 100 233 733 249 780 5 17 30 96 56 177 25 81 50 150 54 153
22 13 16 31 306 -926 46 -152 90 -290 99 -307 19 -37 37 -42 153 -42 81 0 95
3 117 22 23 22 71 130 291 653 165 393 267 634 290 685 13 30 92 217 176 415
83 198 182 433 220 523 38 89 69 176 69 192 0 56 -19 60 -273 60 -266 0 -252
5 -302 -115 -228 -547 -535 -1250 -546 -1250 -20 0 -33 31 -114 290 -42 132
-83 258 -90 280 -8 22 -34 103 -59 180 -162 507 -188 583 -204 598 -15 14 -40
17 -125 17 -91 0 -110 -3 -126 -19 -19 -19 -36 -68 -251 -731 -67 -206 -138
-424 -157 -485 -41 -124 -54 -145 -77 -126 -8 7 -18 23 -22 34 -4 12 -64 157
-134 322 -70 165 -158 372 -195 460 -178 424 -217 511 -236 528 -19 15 -47 17
-253 17 -220 0 -233 -1 -254 -20z"/>
<path d="M4570 3505 c-414 -67 -772 -333 -955 -710 -99 -204 -131 -358 -122
-603 4 -124 10 -178 30 -254 124 -474 502 -834 987 -940 125 -28 384 -30 505
-4 385 82 718 336 891 679 100 197 138 359 138 577 -1 158 -16 243 -47 265
-19 13 -104 15 -634 15 l-612 0 -28 -24 -28 -24 0 -229 c0 -202 2 -232 18
-256 l17 -27 314 0 c339 0 376 -3 376 -30 0 -29 -79 -142 -143 -203 -218 -210
-550 -265 -826 -136 -191 88 -334 256 -397 464 -29 96 -25 286 8 388 100 301
383 507 698 507 182 0 328 -56 488 -186 32 -26 64 -44 79 -44 20 0 65 39 194
167 205 202 203 196 102 291 -133 125 -328 234 -506 284 -168 46 -384 59 -547
33z"/>
<path d="M7320 3508 c-303 -52 -538 -175 -746 -390 -162 -169 -268 -362 -326
-597 -18 -72 -21 -116 -22 -276 0 -174 3 -199 27 -294 30 -116 89 -257 150
-358 177 -297 501 -524 852 -599 121 -26 380 -24 505 4 505 111 886 495 996
1002 13 61 19 128 19 235 0 181 -8 239 -40 271 l-24 24 -606 0 c-641 0 -652
-1 -669 -45 -3 -9 -6 -119 -6 -244 0 -225 0 -228 23 -249 23 -22 29 -22 338
-22 173 0 324 -3 337 -6 33 -9 28 -42 -19 -110 -79 -113 -171 -193 -291 -249
-185 -87 -403 -96 -590 -25 -141 53 -311 203 -380 337 -62 117 -80 192 -80
328 0 96 4 134 22 190 99 314 380 524 701 525 166 0 334 -59 454 -160 75 -62
97 -74 127 -67 13 4 97 80 187 171 186 187 189 191 125 258 -139 144 -376 275
-579 321 -171 38 -353 47 -485 25z"/>
</g>
</svg>
